<?xml version="1.0" encoding="UTF-8"?>
<svg id="Camada_1" data-name="Camada 1" xmlns="http://www.w3.org/2000/svg" version="1.1" viewBox="0 0 285 110">
  <defs>
    <style>
      .cls-1 {
        fill: #009a57;
      }

      .cls-1, .cls-2, .cls-3, .cls-4, .cls-5, .cls-6 {
        stroke-width: 0px;
      }

      .cls-2 {
        fill: #384782;
      }

      .cls-3 {
        fill: #303458;
      }

      .cls-4 {
        fill: #f6e529;
      }

      .cls-5 {
        fill: #303558;
      }

      .cls-6 {
        fill: #878787;
      }
    </style>
  </defs>
  <g>
    <path class="cls-5" d="M70.7,10.71v4.03c-20.4-1.4-35.49,6.64-45.38,24.15.1.12.19.25.29.37.22-.23.49-.43.64-.69,2.22-3.87,5.06-7.27,8.42-10.2,5.1-4.45,10.96-7.58,17.56-9.28,2.2-.57,4.48-.91,6.74-1.21,1.84-.25,3.71-.4,5.56-.38,2,.03,3.99.32,6.01.49v3.22c-3.26-.83-6.55-1.19-9.86-1.14-3.89.06-7.73.6-11.48,1.74-4.8,1.46-9.21,3.68-13.08,6.8-4.07,3.27-7.46,7.14-9.92,11.79-1.84,3.47-3.12,7.11-3.88,10.92-.3,1.52-.35,3.09-.43,4.65-.2,3.82.12,7.67,1.09,11.38,2.11,8.02,6.43,14.27,12.42,19.32,5.35,4.5,11.52,7.33,18.39,8.54,2.94.52,6,.71,8.99.59,6.46-.25,12.54-1.97,18.19-5.18,3.7-2.1,6.97-4.69,9.76-7.82,4.38-4.89,7.41-10.52,8.66-16.98.41-2.1.51-4.26.84-6.38.08-.51.44-1.07.84-1.41,1.18-.99,2.45-1.88,3.74-2.86,1.36,1.08,2.34,2.3,2,4.22-.44,2.52-.62,5.09-1.21,7.57-1.24,5.18-3.6,9.87-6.82,14.14-3.44,4.56-7.7,8.22-12.65,11.05-4.18,2.39-8.64,4.19-13.44,4.95-2.95.47-5.96.91-8.94.91-6.52-.01-12.78-1.37-18.72-4.16-3.75-1.76-7.14-3.99-10.28-6.67-3.56-3.05-6.45-6.61-8.75-10.65-.6-1.05-1.1-2.16-1.66-3.24-.14-.26-.35-.47-.6-.65,5.81,17.09,23.28,29.83,43.52,28.69,22.15-1.26,39.08-17.95,41.36-39.13.92,3.7-3.19,16.11-7.6,22.79-4.61,6.98-10.62,12.5-18.05,16.47-19.74,10.52-44.71,6.82-60.36-10.35-14.79-16.23-17.03-40.28-4.99-58.94C30.42,12.37,52.9,6.41,70.7,10.71Z"/>
    <path class="cls-5" d="M97.3,43.63c5.37-.63,10.75-1.27,16.33-1.92-1.55,4.78-3.06,9.46-4.58,14.18-1.37-1.3-2.63-2.47-3.95-3.72-1.63,1.26-3.26,2.51-4.88,3.77-3.69,2.88-7.36,5.78-11.05,8.64-.66.51-1.03,1-1.02,1.91.06,4.89.04,9.78.01,14.66,0,.37-.13.86-.39,1.11-4.17,4.1-9.02,7.15-14.58,9.08-.12.04-.26.03-.52.05v-1.07c0-4.39-.02-8.78.02-13.17,0-.55-.29-1.05-.76-1.34-1.29-.79-2.55-1.65-3.96-2.57v19.43c-5.29.95-10.44.74-15.6-.58v-17.42c-1.56,1.23-2.99,2.33-4.37,3.49-.24.2-.31.69-.31,1.05-.02,3.39-.01,6.78-.01,10.17,0,.32,0,.63,0,1.11-5.57-2.3-10.16-5.69-14.18-10.03,10.23-7.31,20.42-14.59,30.68-21.92,3.06,3.37,6.12,6.74,9.24,10.18,1.55-1.14,3.09-2.27,4.63-3.41,6.79-5.05,13.58-10.11,20.38-15.14.52-.38.75-.66.51-1.35-.59-1.66-1.07-3.36-1.63-5.19Z"/>
    <path class="cls-1" d="M72.91,7.91h15.1c0,.3,0,.6,0,.91.01,15.18.02,30.37.05,45.55,0,.6-.18.97-.7,1.35-4.51,3.33-8.99,6.71-13.52,10.1-.58-.44-.99-.86-.99-1.71.04-18.41.05-36.82.07-55.22,0-.29,0-.58,0-.98Z"/>
    <path class="cls-2" d="M52.65,64.12V26.5h15.1v32.69c-.77-.83-1.48-1.58-2.18-2.34-.15-.16-.28-.35-.41-.54-.54-.76-.96-.66-1.69-.06-1.84,1.52-3.82,2.88-5.76,4.28-1.65,1.19-3.32,2.35-5.06,3.58Z"/>
    <path class="cls-4" d="M32.37,43.71h15.03c0,.39,0,.74,0,1.08,0,7.4,0,14.79.02,22.19,0,1.05-.38,1.44-2.85,2.36-4.37,1.62-8.07,4.53-10.91,8.19-.41.53-.69.62-1.29.98v-34.8Z"/>
    <path class="cls-5" d="M90.32,26.1c5.4,4.08,9.55,8.85,12.43,14.77-1.96.25-3.79.5-5.62.68-.29.03-.74-.25-.89-.51-1.55-2.71-3.2-5.33-5.31-7.66-.36-.4-.55-1.08-.57-1.64-.07-1.79-.03-3.58-.03-5.64Z"/>
    <path class="cls-5" d="M90.51,20.45c4,3.44,7.69,7.14,10.46,11.63,1.59,2.58,1.52,2.61,1.44,2.68-.67-.79-2.99-4.08-3.72-4.81-2.08-2.08-4.18-4.13-6.31-6.16,0,0-.5-.48-1.67-1.26-.54-.36-.35-1.33-.49-2.01.1-.02.2-.05.3-.07Z"/>
  </g>
  <text/>
  <g>
    <path class="cls-6" d="M132.35,56.93c.36.05.65.13.86.21.07.02.11.05.13.08s.03.09.04.17l.14,1.53s-.02.04-.06.04c-.04,0-.06,0-.08-.03-.21-.6-.51-1.06-.89-1.38-.39-.32-.85-.48-1.39-.48-.5,0-.96.13-1.35.4-.4.27-.71.65-.94,1.15-.23.5-.34,1.08-.34,1.75s.12,1.27.35,1.78c.23.51.56.9.97,1.18s.89.41,1.42.41.94-.14,1.29-.41c.35-.28.68-.73.99-1.36,0-.02.03-.03.07-.02.04,0,.06.02.06.04l-.17,1.37c-.02.09-.03.15-.04.17-.01.03-.06.05-.12.08-.68.24-1.37.36-2.07.36-.79,0-1.51-.15-2.13-.45-.63-.3-1.12-.71-1.48-1.25s-.53-1.15-.53-1.83.18-1.32.55-1.87.87-.98,1.51-1.28c.64-.31,1.36-.46,2.14-.46.35,0,.7.03,1.06.08Z"/>
    <path class="cls-6" d="M136.1,63.68c-.35-.21-.61-.49-.8-.85s-.28-.74-.28-1.16c0-.48.12-.88.37-1.22s.56-.58.94-.75c.38-.17.77-.25,1.17-.25.46,0,.86.11,1.2.32.34.21.6.49.79.84.18.35.27.72.27,1.12,0,.44-.11.83-.33,1.17-.22.34-.52.61-.9.8-.38.19-.78.29-1.22.29-.46,0-.86-.1-1.21-.31ZM138.31,63.34c.15-.28.23-.69.23-1.22s-.07-.95-.2-1.32-.31-.64-.52-.83c-.22-.19-.45-.28-.69-.28-.59,0-.89.53-.89,1.58,0,.49.06.93.19,1.3.13.38.3.67.51.88.22.21.45.31.71.31.29,0,.51-.14.66-.42Z"/>
    <path class="cls-6" d="M146.37,63.78s-.01.07-.03.07c-.19,0-.34,0-.46-.01h-.67s-.65,0-.65,0c-.12,0-.28.01-.47.01-.02,0-.03-.02-.03-.07s.01-.07.03-.07c.23,0,.39-.05.47-.16.08-.11.12-.31.12-.6v-1.59c0-.4-.07-.69-.22-.88-.15-.19-.37-.29-.69-.29-.18,0-.36.04-.55.11s-.35.17-.5.3v2.35c0,.29.04.49.13.6.09.11.24.16.47.16.02,0,.03.02.03.07s-.01.07-.03.07c-.19,0-.34,0-.46-.01h-.67s-.66,0-.66,0c-.11,0-.26.01-.46.01-.02,0-.03-.02-.03-.07s.01-.07.03-.07c.23,0,.39-.05.47-.16.08-.11.12-.31.12-.6v-2.07c0-.23-.03-.39-.08-.5-.06-.11-.14-.16-.26-.16-.13,0-.3.05-.53.15h-.02s-.04-.02-.05-.05c-.01-.04,0-.06,0-.07l1.55-.75s.07-.02.08-.02c.08,0,.16.08.23.24.07.16.12.37.13.64.51-.6,1.08-.9,1.69-.9.4,0,.72.13.95.38.23.25.35.59.35,1v2.12c0,.29.04.49.13.6.09.11.24.16.47.16.02,0,.03.02.03.07Z"/>
    <path class="cls-6" d="M148.63,60.68c.15.15.37.32.66.48.28.16.49.29.63.38s.26.22.37.39.17.37.17.6c0,.25-.06.48-.19.71-.13.22-.32.4-.57.53-.25.14-.55.2-.9.2-.41,0-.79-.1-1.16-.3-.04-.04-.07-.09-.07-.13l-.02-1.09s.02-.04.06-.04c.04,0,.06,0,.07.02.12.37.32.68.59.94.27.26.55.39.83.39.16,0,.28-.05.37-.14s.14-.23.14-.42c0-.27-.08-.49-.23-.64-.16-.16-.39-.32-.69-.49-.26-.14-.46-.25-.59-.34-.13-.09-.25-.21-.36-.37-.1-.16-.16-.36-.16-.59,0-.43.16-.75.47-.95s.69-.3,1.15-.3c.17,0,.32.01.46.03.14.02.29.07.46.13.07.02.1.06.1.12,0,.18,0,.33-.01.43v.55s-.03.03-.08.03-.07-.01-.07-.03c0-.14-.06-.29-.18-.46-.12-.17-.27-.31-.46-.42-.19-.12-.38-.18-.58-.18-.3,0-.46.14-.46.43,0,.21.08.4.23.55Z"/>
    <path class="cls-6" d="M155.72,63.12s.03.01.05.04.02.05,0,.07c-.28.26-.55.46-.84.57s-.59.18-.92.18c-.47,0-.87-.1-1.21-.29-.34-.19-.6-.46-.78-.78-.18-.33-.27-.68-.27-1.06,0-.43.11-.82.32-1.18.21-.36.51-.64.9-.85.38-.21.82-.31,1.3-.31s.82.1,1.07.31c.25.21.38.53.38.96,0,.23-.04.34-.12.34h-2.71c0,.06-.01.15-.01.26,0,.65.15,1.15.45,1.52s.73.55,1.3.55c.2,0,.37-.02.51-.07.14-.04.33-.12.56-.24h.02ZM153.24,60.03c-.16.21-.27.5-.32.87l1.62-.02c0-.37-.06-.66-.17-.86-.1-.2-.27-.3-.51-.3s-.45.1-.61.31Z"/>
    <path class="cls-6" d="M156.98,63.78s0-.07.02-.07c.23,0,.39-.05.47-.16.08-.11.13-.31.13-.6v-5.6c.01-.26-.01-.44-.06-.55s-.13-.17-.25-.17c-.1,0-.24.04-.42.12h-.01s-.04-.02-.06-.06-.02-.06,0-.07l1.64-.76h.04s.08,0,.12.04.07.06.07.09v6.95c0,.29.04.49.12.6.08.11.24.16.47.16.03,0,.04.02.04.07s-.01.07-.04.07c-.19,0-.33,0-.45-.01h-.68s-.67,0-.67,0c-.11,0-.26.01-.46.01-.01,0-.02-.02-.02-.07Z"/>
    <path class="cls-6" d="M165.67,63.78s-.02.07-.04.07c-.19,0-.35,0-.47-.01h-.65s-.67,0-.67,0c-.11,0-.26.01-.46.01-.01,0-.02-.02-.02-.07s0-.07.02-.07c.23,0,.39-.05.47-.16s.13-.31.13-.6v-1.59c0-.4-.07-.69-.22-.88-.15-.19-.38-.29-.69-.29-.18,0-.36.04-.55.11-.19.07-.35.17-.5.3v2.35c0,.29.04.49.13.6s.24.16.47.16c.03,0,.04.02.04.07s-.01.07-.04.07c-.19,0-.35,0-.47-.01h-.65s-.67,0-.67,0c-.11,0-.26.01-.46.01-.01,0-.02-.02-.02-.07s0-.07.02-.07c.23,0,.39-.05.47-.16s.13-.31.13-.6v-5.6c0-.26-.02-.44-.07-.55-.05-.11-.13-.17-.25-.17-.1,0-.25.04-.42.12h-.01s-.04-.02-.06-.06-.02-.06,0-.07l1.63-.76h.06s.08,0,.12.04.06.06.06.09v4.36c.53-.6,1.09-.9,1.69-.9.4,0,.72.13.95.38.23.25.35.59.35,1v2.12c0,.29.04.49.13.6s.24.16.47.16c.03,0,.04.02.04.07Z"/>
    <path class="cls-6" d="M167.81,63.68c-.35-.21-.61-.49-.8-.85s-.28-.74-.28-1.16c0-.48.12-.88.37-1.22s.56-.58.94-.75c.38-.17.77-.25,1.17-.25.46,0,.86.11,1.2.32s.6.49.79.84.27.72.27,1.12c0,.44-.11.83-.33,1.17-.22.34-.52.61-.9.8-.38.19-.78.29-1.22.29-.46,0-.86-.1-1.21-.31ZM170.02,63.34c.15-.28.23-.69.23-1.22s-.07-.95-.2-1.32-.31-.64-.52-.83c-.22-.19-.45-.28-.69-.28-.59,0-.89.53-.89,1.58,0,.49.06.93.19,1.3.13.38.3.67.51.88.21.21.45.31.71.31.29,0,.51-.14.66-.42Z"/>
    <path class="cls-6" d="M181.15,63.13s.04.02.06.06c.02.04.02.06,0,.07l-1.54.74h-.06c-.07.01-.13-.06-.18-.2s-.09-.33-.11-.57c-.55.51-1.11.77-1.68.77-.33,0-.62-.08-.88-.25-.26-.17-.47-.42-.63-.74-.16-.33-.23-.71-.23-1.15,0-.56.13-1.02.4-1.37.26-.36.59-.61.98-.78.39-.16.78-.24,1.18-.24.27,0,.56.04.87.13v-2.22c0-.26-.02-.44-.07-.55s-.13-.17-.25-.17c-.1,0-.23.04-.41.12h-.01s-.05-.02-.07-.06-.02-.06,0-.07l1.64-.76h.04s.08,0,.12.04.07.06.07.09v6.56c0,.25.02.43.07.53.05.1.13.15.24.15.1,0,.25-.04.46-.12h.01ZM179.32,63v-2.73c-.13-.18-.28-.32-.45-.4-.17-.08-.36-.13-.58-.13-.4,0-.71.14-.92.41-.21.28-.32.72-.32,1.34s.11,1.1.33,1.45.52.52.88.52.72-.15,1.06-.46Z"/>
    <path class="cls-6" d="M186.1,63.12s.03.01.05.04.02.05,0,.07c-.27.26-.55.46-.83.57s-.59.18-.92.18c-.47,0-.87-.1-1.21-.29s-.6-.46-.78-.78c-.18-.33-.27-.68-.27-1.06,0-.43.11-.82.32-1.18.22-.36.51-.64.9-.85.38-.21.81-.31,1.3-.31s.82.1,1.07.31c.25.21.38.53.38.96,0,.23-.04.34-.12.34h-2.71c0,.06-.01.15-.01.26,0,.65.15,1.15.45,1.52s.73.55,1.3.55c.2,0,.37-.02.51-.07.14-.04.33-.12.56-.24h.02ZM183.62,60.03c-.16.21-.27.5-.32.87l1.62-.02c0-.37-.06-.66-.17-.86-.1-.2-.28-.3-.51-.3s-.45.1-.61.31Z"/>
    <path class="cls-6" d="M192.94,63.86c-.12,0-.27-.01-.44-.02-.17,0-.37-.01-.58-.01h-.82c-.15.02-.35.02-.6.02-.01,0-.02-.02-.02-.07s0-.07.02-.07c.24,0,.41-.02.52-.05.11-.04.19-.11.23-.21.04-.11.06-.27.06-.49v-5.1c0-.22-.02-.38-.06-.49-.04-.1-.12-.17-.22-.21-.11-.04-.28-.06-.51-.06-.02,0-.03-.02-.03-.07s.01-.07.03-.07h.59c.34.03.61.03.81.03.3,0,.62-.01.94-.03.39-.01.65-.02.78-.02.75,0,1.42.15,2,.44.58.29,1.03.69,1.35,1.2s.48,1.08.48,1.71c0,.71-.17,1.34-.5,1.89-.33.55-.78.97-1.34,1.27-.56.3-1.18.45-1.84.45-.24,0-.52-.01-.85-.03ZM194.94,63.28c.36-.24.65-.59.85-1.06s.31-1.03.31-1.69-.1-1.19-.29-1.7c-.19-.51-.47-.91-.82-1.21s-.77-.44-1.24-.44-.78.04-.95.13-.26.28-.26.56v4.96c0,.29.08.5.23.62s.46.18.9.18c.47,0,.89-.12,1.26-.36Z"/>
    <path class="cls-6" d="M202.82,63.12s.03.01.05.04.02.05,0,.07c-.28.26-.55.46-.84.57s-.59.18-.92.18c-.47,0-.87-.1-1.21-.29-.34-.19-.6-.46-.78-.78-.18-.33-.27-.68-.27-1.06,0-.43.11-.82.32-1.18.21-.36.51-.64.9-.85.38-.21.82-.31,1.3-.31s.82.1,1.07.31c.25.21.38.53.38.96,0,.23-.04.34-.12.34h-2.71c0,.06-.01.15-.01.26,0,.65.15,1.15.45,1.52s.73.55,1.3.55c.2,0,.37-.02.51-.07.14-.04.33-.12.56-.24h.02ZM200.34,60.03c-.16.21-.27.5-.32.87l1.62-.02c0-.37-.06-.66-.17-.86-.1-.2-.27-.3-.51-.3s-.45.1-.61.31Z"/>
    <path class="cls-6" d="M205.26,60.68c.15.15.37.32.66.48.28.16.49.29.63.38s.26.22.37.39.17.37.17.6c0,.25-.06.48-.19.71-.13.22-.32.4-.57.53-.25.14-.55.2-.9.2-.41,0-.79-.1-1.16-.3-.04-.04-.07-.09-.07-.13l-.02-1.09s.02-.04.06-.04c.04,0,.06,0,.07.02.12.37.32.68.59.94.27.26.55.39.83.39.16,0,.28-.05.37-.14s.14-.23.14-.42c0-.27-.08-.49-.23-.64-.16-.16-.39-.32-.69-.49-.26-.14-.46-.25-.59-.34-.13-.09-.25-.21-.36-.37-.1-.16-.16-.36-.16-.59,0-.43.16-.75.47-.95s.69-.3,1.15-.3c.17,0,.32.01.46.03.14.02.29.07.46.13.07.02.1.06.1.12,0,.18,0,.33-.01.43v.55s-.03.03-.08.03-.07-.01-.07-.03c0-.14-.06-.29-.18-.46-.12-.17-.27-.31-.46-.42-.19-.12-.38-.18-.58-.18-.3,0-.46.14-.46.43,0,.21.08.4.23.55Z"/>
    <path class="cls-6" d="M212.35,63.12s.03.01.05.04.02.05,0,.07c-.28.26-.55.46-.84.57s-.59.18-.92.18c-.47,0-.87-.1-1.21-.29-.34-.19-.6-.46-.78-.78-.18-.33-.27-.68-.27-1.06,0-.43.11-.82.32-1.18.21-.36.51-.64.9-.85.38-.21.82-.31,1.3-.31s.82.1,1.07.31c.25.21.38.53.38.96,0,.23-.04.34-.12.34h-2.71c0,.06-.01.15-.01.26,0,.65.15,1.15.45,1.52s.73.55,1.3.55c.2,0,.37-.02.51-.07.14-.04.33-.12.56-.24h.02ZM209.86,60.03c-.16.21-.27.5-.32.87l1.62-.02c0-.37-.06-.66-.17-.86-.1-.2-.27-.3-.51-.3s-.45.1-.61.31Z"/>
    <path class="cls-6" d="M218.94,63.78s-.01.07-.03.07c-.19,0-.34,0-.46-.01h-.67s-.65,0-.65,0c-.12,0-.28.01-.47.01-.02,0-.03-.02-.03-.07s.01-.07.03-.07c.23,0,.39-.05.47-.16.08-.11.12-.31.12-.6v-1.59c0-.4-.07-.69-.22-.88-.15-.19-.37-.29-.69-.29-.18,0-.36.04-.55.11s-.35.17-.5.3v2.35c0,.29.04.49.13.6.09.11.24.16.47.16.02,0,.03.02.03.07s-.01.07-.03.07c-.19,0-.34,0-.46-.01h-.67s-.66,0-.66,0c-.11,0-.26.01-.46.01-.02,0-.03-.02-.03-.07s.01-.07.03-.07c.23,0,.39-.05.47-.16.08-.11.12-.31.12-.6v-2.07c0-.23-.03-.39-.08-.5-.06-.11-.14-.16-.26-.16-.13,0-.3.05-.53.15h-.02s-.04-.02-.05-.05c-.01-.04,0-.06,0-.07l1.55-.75s.07-.02.08-.02c.08,0,.16.08.23.24.07.16.12.37.13.64.51-.6,1.08-.9,1.69-.9.4,0,.72.13.95.38.23.25.35.59.35,1v2.12c0,.29.04.49.13.6.09.11.24.16.47.16.02,0,.03.02.03.07Z"/>
    <path class="cls-6" d="M224.73,59.66s0,.07-.02.07c-.21,0-.41.08-.57.24-.17.16-.33.41-.47.75l-1.37,3.13s-.05.06-.12.06c-.06,0-.1-.02-.12-.06l-1.7-3.34c-.16-.32-.29-.53-.41-.63-.12-.1-.26-.15-.43-.15-.02,0-.03-.02-.03-.07s.01-.07.03-.07c.13,0,.24,0,.33.01h.75s.86,0,.86,0c.13,0,.3-.01.52-.01.02,0,.03.02.03.07s-.01.07-.03.07c-.43,0-.65.08-.65.25,0,.04.02.1.06.18l1.25,2.31.74-1.76c.06-.15.09-.29.09-.4,0-.18-.06-.33-.19-.43s-.3-.15-.52-.15c-.01,0-.02-.02-.02-.07s0-.07.02-.07c.2,0,.35,0,.46.01h.67s.45,0,.45,0c.09,0,.23-.01.41-.01.02,0,.02.02.02.07Z"/>
    <path class="cls-6" d="M226.54,63.68c-.35-.21-.61-.49-.8-.85s-.28-.74-.28-1.16c0-.48.12-.88.37-1.22.25-.33.56-.58.94-.75.38-.17.77-.25,1.17-.25.46,0,.86.11,1.2.32.34.21.6.49.79.84.18.35.27.72.27,1.12,0,.44-.11.83-.33,1.17s-.52.61-.9.8c-.38.19-.78.29-1.22.29-.46,0-.86-.1-1.21-.31ZM228.75,63.34c.15-.28.23-.69.23-1.22s-.07-.95-.2-1.32c-.13-.37-.31-.64-.52-.83-.21-.19-.45-.28-.69-.28-.59,0-.89.53-.89,1.58,0,.49.06.93.19,1.3.13.38.3.67.51.88.22.21.45.31.71.31.29,0,.51-.14.66-.42Z"/>
    <path class="cls-6" d="M231.48,63.78s0-.07.02-.07c.23,0,.39-.05.47-.16.08-.11.13-.31.13-.6v-5.6c.01-.26-.01-.44-.06-.55-.05-.11-.13-.17-.25-.17-.1,0-.24.04-.42.12h-.01s-.04-.02-.06-.06-.02-.06,0-.07l1.64-.76h.04s.08,0,.12.04c.04.03.07.06.07.09v6.95c0,.29.04.49.12.6s.24.16.47.16c.03,0,.04.02.04.07s-.02.07-.04.07c-.19,0-.33,0-.45-.01h-.68s-.67,0-.67,0c-.11,0-.26.01-.46.01-.01,0-.02-.02-.02-.07Z"/>
    <path class="cls-6" d="M239.74,59.66s0,.07-.02.07c-.22,0-.41.08-.57.24-.17.16-.33.41-.47.75l-1.37,3.13s-.05.06-.12.06c-.06,0-.1-.02-.12-.06l-1.7-3.34c-.16-.32-.29-.53-.41-.63-.12-.1-.26-.15-.43-.15-.02,0-.03-.02-.03-.07s.01-.07.03-.07c.13,0,.25,0,.33.01h.75s.86,0,.86,0c.13,0,.3-.01.52-.01.02,0,.03.02.03.07s-.01.07-.03.07c-.43,0-.65.08-.65.25,0,.04.02.1.06.18l1.25,2.31.74-1.76c.06-.15.09-.29.09-.4,0-.18-.06-.33-.19-.43s-.3-.15-.52-.15c-.01,0-.02-.02-.02-.07s0-.07.02-.07c.2,0,.35,0,.46.01h.67s.45,0,.45,0c.09,0,.23-.01.41-.01.01,0,.02.02.02.07Z"/>
    <path class="cls-6" d="M240.51,63.78s.01-.07.03-.07c.23,0,.39-.05.47-.16.08-.11.12-.31.12-.6v-1.97c0-.25-.03-.43-.08-.54-.05-.11-.14-.17-.26-.17-.1,0-.23.04-.41.12h-.01s-.05-.02-.07-.06-.01-.06.01-.07l1.68-.77h.03s.07,0,.11.04c.04.04.06.07.06.1v.24c-.01.29-.02.65-.02,1.08v1.99c0,.29.04.49.13.6.08.11.24.16.47.16.02,0,.03.02.03.07s-.01.07-.03.07c-.19,0-.34,0-.46-.01h-.67s-.66,0-.66,0c-.11,0-.26.01-.46.01-.02,0-.03-.02-.03-.07ZM241.12,58.22c-.12-.12-.18-.28-.18-.5,0-.19.06-.34.18-.46.12-.11.29-.17.5-.17s.37.06.48.17c.11.11.17.26.17.46,0,.21-.06.38-.17.5s-.27.18-.48.18-.38-.06-.5-.18Z"/>
    <path class="cls-6" d="M252.1,63.78s-.01.07-.04.07c-.19,0-.35,0-.46-.01h-.67s-.65,0-.65,0c-.12,0-.27.01-.47.01-.02,0-.03-.02-.03-.07s.01-.07.03-.07c.23,0,.39-.05.47-.16s.13-.31.13-.6v-1.59c0-.4-.07-.69-.21-.88-.14-.19-.35-.29-.63-.29-.19,0-.38.04-.57.12s-.34.19-.48.33v2.3c0,.29.04.49.13.6.08.11.24.16.47.16.03,0,.04.02.04.07s-.01.07-.04.07c-.19,0-.35,0-.46-.01h-.67s-.65,0-.65,0c-.12,0-.27.01-.47.01-.02,0-.03-.02-.03-.07s.01-.07.03-.07c.23,0,.39-.05.47-.16.08-.11.13-.31.13-.6v-1.59c0-.4-.07-.69-.21-.88-.14-.19-.35-.29-.63-.29-.18,0-.36.04-.53.1-.17.07-.33.17-.46.29v2.36c0,.29.04.49.13.6.08.11.24.16.47.16.02,0,.03.02.03.07s-.01.07-.03.07c-.19,0-.34,0-.46-.01h-.67s-.66,0-.66,0c-.11,0-.26.01-.46.01-.02,0-.03-.02-.03-.07s.01-.07.03-.07c.23,0,.39-.05.47-.16.08-.11.12-.31.12-.6v-2.07c0-.23-.03-.39-.08-.5s-.14-.16-.26-.16c-.13,0-.3.05-.54.15h-.02s-.04-.02-.05-.05c-.01-.04,0-.06,0-.07l1.55-.75s.07-.02.08-.02c.08,0,.16.08.23.24.07.16.12.37.13.63.5-.59,1.05-.89,1.63-.89.35,0,.63.08.83.25s.33.41.38.73c.51-.65,1.08-.98,1.7-.98.4,0,.71.11.92.34s.32.57.32,1.04v2.12c0,.29.04.49.13.6s.24.16.47.16c.03,0,.04.02.04.07Z"/>
    <path class="cls-6" d="M257.13,63.12s.03.01.05.04.02.05,0,.07c-.27.26-.55.46-.83.57s-.59.18-.92.18c-.47,0-.87-.1-1.21-.29s-.6-.46-.78-.78c-.18-.33-.27-.68-.27-1.06,0-.43.11-.82.32-1.18.21-.36.51-.64.9-.85.38-.21.81-.31,1.3-.31s.82.1,1.07.31c.25.21.38.53.38.96,0,.23-.04.34-.12.34h-2.71c0,.06-.01.15-.01.26,0,.65.15,1.15.45,1.52s.73.55,1.3.55c.2,0,.37-.02.51-.07.14-.04.33-.12.56-.24h.02ZM254.65,60.03c-.16.21-.27.5-.32.87l1.62-.02c0-.37-.06-.66-.17-.86-.1-.2-.28-.3-.51-.3s-.45.1-.61.31Z"/>
    <path class="cls-6" d="M263.73,63.78s-.01.07-.03.07c-.19,0-.34,0-.46-.01h-.67s-.65,0-.65,0c-.12,0-.27.01-.47.01-.02,0-.03-.02-.03-.07s.01-.07.03-.07c.23,0,.39-.05.47-.16s.12-.31.12-.6v-1.59c0-.4-.07-.69-.22-.88-.14-.19-.37-.29-.68-.29-.18,0-.36.04-.55.11s-.35.17-.5.3v2.35c0,.29.04.49.13.6.08.11.24.16.47.16.02,0,.03.02.03.07s-.01.07-.03.07c-.19,0-.34,0-.46-.01h-.67s-.66,0-.66,0c-.11,0-.26.01-.46.01-.02,0-.03-.02-.03-.07s.01-.07.03-.07c.23,0,.39-.05.47-.16.08-.11.12-.31.12-.6v-2.07c0-.23-.03-.39-.08-.5s-.14-.16-.26-.16c-.13,0-.3.05-.54.15h-.02s-.04-.02-.05-.05c-.01-.04,0-.06,0-.07l1.55-.75s.07-.02.08-.02c.08,0,.16.08.23.24.07.16.12.37.13.64.51-.6,1.08-.9,1.69-.9.4,0,.72.13.95.38.23.25.35.59.35,1v2.12c0,.29.04.49.13.6.08.11.24.16.47.16.02,0,.03.02.03.07Z"/>
    <path class="cls-6" d="M268.05,63.08s.05.01.07.04c.02.03.02.05,0,.07-.28.27-.54.47-.8.6-.26.13-.54.19-.82.19-.33,0-.61-.08-.84-.23s-.34-.42-.34-.78v-2.45c0-.23-.04-.39-.12-.47s-.23-.13-.45-.13c0,0-.02-.01-.03-.03-.01-.02-.02-.04-.02-.07,0-.03,0-.05.01-.07,0-.02.02-.03.03-.03.38-.01.68-.1.92-.24.23-.15.41-.37.54-.67.01-.03.05-.04.09-.04s.07.02.07.04v.88c.43,0,.91-.04,1.45-.1.01,0,.03.03.05.08s.03.12.03.18c0,.07-.01.15-.04.21-.03.07-.05.1-.08.09-.48-.1-.95-.16-1.4-.17v2.61c0,.28.07.48.22.62.14.13.34.2.57.2.3,0,.59-.11.87-.33h.02Z"/>
    <path class="cls-6" d="M270.17,63.68c-.35-.21-.61-.49-.8-.85s-.28-.74-.28-1.16c0-.48.12-.88.37-1.22s.56-.58.94-.75c.38-.17.77-.25,1.17-.25.46,0,.86.11,1.2.32.34.21.6.49.79.84.18.35.27.72.27,1.12,0,.44-.11.83-.33,1.17s-.52.61-.9.8c-.38.19-.78.29-1.22.29-.46,0-.86-.1-1.21-.31ZM272.37,63.34c.15-.28.23-.69.23-1.22s-.07-.95-.2-1.32c-.13-.37-.31-.64-.52-.83-.21-.19-.45-.28-.69-.28-.59,0-.89.53-.89,1.58,0,.49.06.93.19,1.3.13.38.3.67.51.88.22.21.45.31.71.31.29,0,.51-.14.66-.42Z"/>
    <path class="cls-6" d="M145.06,74.66s.04,0,.06.02.03.02.03.03c-.07.57-.11,1.09-.11,1.56,0,.06-.01.1-.03.13-.02.03-.07.04-.13.04h-4.92s-.03-.02-.03-.07.01-.07.03-.07c.24,0,.41-.02.52-.06.11-.04.18-.11.22-.21s.06-.27.06-.49v-5.1c0-.22-.02-.38-.06-.48s-.11-.17-.22-.21c-.11-.04-.28-.06-.51-.06-.02,0-.03-.02-.03-.07s.01-.07.03-.07h4.72c.07,0,.11.03.11.1l.02,1.46s-.02.03-.06.03c-.04,0-.07,0-.07-.02-.12-.43-.32-.74-.6-.95-.28-.21-.65-.31-1.11-.31h-.33c-.22,0-.39.05-.49.14-.1.1-.16.24-.16.44v2.25h.92c.43,0,.76-.07.99-.22.23-.15.35-.35.35-.62,0-.02.02-.03.06-.03s.06.01.06.03v.99s0,.53,0,.53c.02.25.02.45.02.59,0,.01-.02.02-.07.02s-.07,0-.07-.02c0-.3-.12-.54-.35-.71-.23-.17-.57-.26-1.01-.26h-.91v2.49c0,.21.04.37.12.47.08.1.21.15.39.15h.37c.58,0,1.04-.12,1.39-.35.35-.23.61-.6.77-1.09,0-.01.02-.02.04-.02Z"/>
    <path class="cls-6" d="M147.56,76.26c-.34-.21-.59-.48-.76-.82-.17-.33-.25-.68-.25-1.05,0-.46.13-.87.39-1.22s.59-.62,1-.8c.41-.19.82-.28,1.24-.28.36,0,.68.07.96.22.29.15.43.35.43.61,0,.14-.05.26-.16.36-.11.1-.26.15-.45.15-.18,0-.32-.05-.42-.14-.1-.09-.19-.23-.26-.42-.07-.21-.13-.35-.2-.42s-.18-.12-.34-.12c-.32,0-.57.16-.76.47-.19.31-.28.73-.28,1.24,0,.61.14,1.1.41,1.46.27.36.71.55,1.31.55.2,0,.37-.02.52-.07s.33-.12.55-.22h.01s.04.01.06.03c.02.02.02.04,0,.06-.28.25-.55.43-.82.56-.28.12-.59.18-.95.18-.49,0-.9-.1-1.24-.31Z"/>
    <path class="cls-6" d="M152.85,76.27c-.35-.21-.61-.49-.8-.85s-.28-.74-.28-1.16c0-.48.12-.88.37-1.22.25-.33.56-.58.94-.75.38-.17.77-.25,1.17-.25.46,0,.86.11,1.2.32s.6.49.79.84.27.72.27,1.12c0,.44-.11.83-.33,1.17-.22.34-.52.61-.9.8-.38.19-.78.29-1.22.29-.46,0-.86-.11-1.21-.31ZM155.06,75.93c.15-.28.23-.69.23-1.22s-.07-.95-.2-1.32-.31-.64-.52-.83c-.22-.19-.45-.28-.69-.28-.59,0-.89.52-.89,1.57,0,.49.06.93.19,1.31s.3.67.51.88c.21.21.45.31.71.31.29,0,.51-.14.66-.42Z"/>
    <path class="cls-6" d="M163.13,76.37s-.01.07-.03.07c-.19,0-.34,0-.46-.01h-.67s-.65,0-.65,0c-.12,0-.28.01-.47.01-.02,0-.03-.02-.03-.07s.01-.07.03-.07c.23,0,.39-.05.47-.16.08-.11.12-.31.12-.6v-1.59c0-.4-.07-.69-.22-.88-.15-.19-.37-.29-.69-.29-.18,0-.36.04-.55.11-.19.07-.35.17-.5.3v2.35c0,.29.04.49.13.6.09.11.24.16.47.16.02,0,.03.02.03.07s-.01.07-.03.07c-.19,0-.34,0-.46-.01h-.67s-.66,0-.66,0c-.11,0-.26.01-.46.01-.02,0-.03-.02-.03-.07s.01-.07.03-.07c.23,0,.39-.05.47-.16.08-.11.12-.31.12-.6v-2.07c0-.23-.03-.39-.08-.5-.06-.11-.14-.16-.26-.16-.13,0-.3.05-.53.15h-.02s-.04-.02-.05-.05c-.01-.04,0-.06,0-.07l1.55-.75s.07-.02.08-.02c.08,0,.16.08.23.24.07.16.12.37.13.64.51-.6,1.08-.9,1.69-.9.4,0,.72.13.95.38.23.25.35.59.35,1v2.11c0,.29.04.49.13.6.09.11.24.16.47.16.02,0,.03.02.03.07Z"/>
    <path class="cls-6" d="M165.27,76.27c-.35-.21-.61-.49-.8-.85s-.28-.74-.28-1.16c0-.48.12-.88.37-1.22.25-.33.56-.58.94-.75.38-.17.77-.25,1.17-.25.46,0,.86.11,1.2.32s.6.49.79.84.27.72.27,1.12c0,.44-.11.83-.33,1.17-.22.34-.52.61-.9.8-.38.19-.78.29-1.22.29-.46,0-.86-.11-1.21-.31ZM167.48,75.93c.15-.28.23-.69.23-1.22s-.07-.95-.2-1.32-.31-.64-.52-.83c-.22-.19-.45-.28-.69-.28-.59,0-.89.52-.89,1.57,0,.49.06.93.19,1.31s.3.67.51.88c.21.21.45.31.71.31.29,0,.51-.14.66-.42ZM167.46,71.21s-.02.03-.05.03c-.03,0-.05,0-.06-.02l-.76-1.19-.77,1.19s-.03.03-.07.02-.06-.02-.05-.04l.76-2.74s.05-.05.12-.05c.08,0,.13.02.13.05l.75,2.74h0Z"/>
    <path class="cls-6" d="M178.34,76.37s-.01.07-.04.07c-.19,0-.35,0-.46-.01h-.67s-.65,0-.65,0c-.12,0-.27.01-.47.01-.02,0-.03-.02-.03-.07s.01-.07.03-.07c.23,0,.39-.05.47-.16.08-.11.13-.31.13-.6v-1.59c0-.4-.07-.69-.21-.88-.14-.19-.35-.29-.63-.29-.19,0-.38.04-.57.12s-.35.19-.48.33v2.3c0,.29.04.49.13.6.08.11.24.16.47.16.03,0,.04.02.04.07s-.01.07-.04.07c-.19,0-.34,0-.46-.01h-.67s-.65,0-.65,0c-.12,0-.28.01-.47.01-.02,0-.03-.02-.03-.07s.01-.07.03-.07c.23,0,.39-.05.47-.16.08-.11.13-.31.13-.6v-1.59c0-.4-.07-.69-.21-.88-.14-.19-.35-.29-.63-.29-.18,0-.35.04-.53.1-.17.07-.33.17-.46.29v2.36c0,.29.04.49.13.6.09.11.24.16.47.16.02,0,.03.02.03.07s-.01.07-.03.07c-.19,0-.34,0-.46-.01h-.67s-.66,0-.66,0c-.11,0-.26.01-.46.01-.02,0-.03-.02-.03-.07s.01-.07.03-.07c.23,0,.39-.05.47-.16.08-.11.12-.31.12-.6v-2.07c0-.23-.03-.39-.08-.5-.06-.11-.14-.16-.26-.16-.13,0-.3.05-.53.15h-.02s-.04-.02-.05-.05c-.01-.04,0-.06,0-.07l1.55-.75s.07-.02.08-.02c.08,0,.16.08.23.24.07.16.12.37.13.63.5-.59,1.05-.89,1.63-.89.35,0,.63.08.84.25.21.17.33.41.38.73.51-.65,1.08-.98,1.7-.98.4,0,.71.11.92.34.21.23.32.57.32,1.04v2.11c0,.29.04.49.13.6.08.11.24.16.47.16.03,0,.04.02.04.07Z"/>
    <path class="cls-6" d="M179.45,76.37s.01-.07.03-.07c.23,0,.39-.05.47-.16s.12-.31.12-.6v-1.97c0-.25-.03-.43-.08-.54-.05-.11-.14-.17-.26-.17-.1,0-.23.04-.41.12h-.01s-.05-.02-.07-.06c-.02-.04-.01-.06.01-.07l1.68-.77h.03s.07,0,.11.04.06.07.06.1v.24c-.01.29-.02.65-.02,1.08v1.99c0,.29.04.49.13.6.08.11.24.16.47.16.02,0,.03.02.03.07s-.01.07-.03.07c-.19,0-.35,0-.46-.01h-.67s-.66,0-.66,0c-.11,0-.26.01-.46.01-.02,0-.03-.02-.03-.07ZM180.06,70.81c-.12-.12-.18-.28-.18-.5,0-.19.06-.34.18-.46.12-.11.29-.17.5-.17s.37.06.48.17c.11.11.17.26.17.46,0,.21-.06.38-.17.5-.11.12-.27.18-.48.18s-.38-.06-.5-.18Z"/>
    <path class="cls-6" d="M183.9,76.26c-.34-.21-.59-.48-.76-.82-.17-.33-.25-.68-.25-1.05,0-.46.13-.87.39-1.22s.59-.62,1-.8c.41-.19.82-.28,1.24-.28.36,0,.68.07.96.22.29.15.43.35.43.61,0,.14-.05.26-.16.36-.11.1-.26.15-.45.15-.18,0-.32-.05-.42-.14-.1-.09-.19-.23-.26-.42-.07-.21-.13-.35-.2-.42s-.18-.12-.34-.12c-.32,0-.57.16-.76.47-.19.31-.28.73-.28,1.24,0,.61.14,1.1.41,1.46.27.36.71.55,1.31.55.2,0,.37-.02.52-.07s.33-.12.55-.22h.01s.04.01.06.03c.02.02.02.04,0,.06-.28.25-.55.43-.82.56-.28.12-.59.18-.95.18-.49,0-.9-.1-1.24-.31Z"/>
    <path class="cls-6" d="M189.2,76.27c-.35-.21-.61-.49-.8-.85s-.28-.74-.28-1.16c0-.48.12-.88.37-1.22.25-.33.56-.58.94-.75.38-.17.77-.25,1.17-.25.46,0,.86.11,1.2.32s.6.49.79.84.27.72.27,1.12c0,.44-.11.83-.33,1.17-.22.34-.52.61-.9.8-.38.19-.78.29-1.22.29-.46,0-.86-.11-1.21-.31ZM191.4,75.93c.15-.28.23-.69.23-1.22s-.07-.95-.2-1.32-.31-.64-.52-.83c-.22-.19-.45-.28-.69-.28-.59,0-.89.52-.89,1.57,0,.49.06.93.19,1.31s.3.67.51.88c.21.21.45.31.71.31.29,0,.51-.14.66-.42Z"/>
    <path class="cls-6" d="M201.25,75.71s.03.01.05.04.02.05,0,.07c-.27.26-.55.46-.83.57s-.59.18-.92.18c-.47,0-.87-.1-1.21-.29-.34-.19-.6-.46-.78-.78-.18-.33-.27-.68-.27-1.06,0-.43.11-.82.32-1.18.22-.36.51-.64.9-.85.38-.21.81-.31,1.3-.31s.82.1,1.07.31c.25.21.38.52.38.96,0,.23-.04.34-.12.34h-2.71c0,.06-.01.15-.01.26,0,.65.15,1.15.45,1.52s.73.55,1.3.55c.2,0,.37-.02.51-.07.14-.04.33-.12.56-.24h.02ZM198.77,72.62c-.16.21-.27.5-.32.86l1.62-.02c0-.38-.06-.66-.17-.86-.1-.2-.28-.3-.51-.3s-.45.11-.61.31Z"/>
    <path class="cls-6" d="M207.45,71.37c.14.21.31.39.51.54.2.15.47.34.81.56.37.23.67.44.89.62.22.18.41.39.57.64s.23.54.23.88c0,.38-.1.72-.31,1.02s-.5.53-.86.69c-.37.17-.78.25-1.23.25-.33,0-.68-.05-1.05-.14-.36-.09-.61-.19-.74-.3-.04-.03-.07-.06-.08-.08-.02-.03-.03-.07-.03-.13l-.03-1.75h0s.02-.06.06-.06c.04,0,.06,0,.07.04.22.45.42.81.58,1.09.17.28.38.52.63.74s.55.32.87.32c.3,0,.54-.08.74-.24s.29-.43.29-.81c0-.32-.07-.61-.22-.85-.14-.24-.32-.45-.53-.62-.21-.17-.49-.37-.86-.61-.36-.23-.63-.42-.83-.58-.2-.16-.37-.36-.51-.58-.14-.23-.21-.5-.21-.8,0-.39.11-.72.34-.99.23-.27.52-.47.87-.59.36-.13.73-.19,1.12-.19.26,0,.52.02.79.07s.48.1.65.17c.07.03.11.06.13.09.02.03.03.08.03.13v1.62s-.02.04-.06.05c-.04.01-.06,0-.07-.02l-.09-.21c-.19-.46-.4-.86-.65-1.18-.25-.32-.6-.48-1.04-.48-.3,0-.54.08-.73.25s-.28.42-.28.74c0,.26.07.5.21.71Z"/>
    <path class="cls-6" d="M217.16,75.72s.04.02.06.05c.02.04.02.06,0,.07l-1.54.74s-.03.01-.06.01c-.07,0-.14-.08-.19-.24-.06-.16-.09-.37-.09-.64-.49.57-1.02.86-1.59.86-.41,0-.73-.13-.96-.38-.23-.25-.35-.58-.35-1v-1.62c0-.48-.12-.72-.35-.72-.08,0-.17.03-.28.08h-.01s-.05-.02-.07-.06c-.01-.04-.01-.06.01-.07l1.49-.71h.06s.08,0,.12.04c.04.03.06.06.06.09v2.43c0,.79.31,1.19.92,1.19.16,0,.33-.03.5-.1.17-.07.32-.17.45-.29v-1.88c0-.48-.12-.72-.35-.72-.08,0-.18.03-.29.08h-.01s-.04-.02-.06-.06c-.01-.04-.01-.06.01-.07l1.49-.71s.03-.01.06-.01c.04,0,.08.02.12.05.04.03.06.06.06.09v2.93c0,.25.02.43.07.53.05.1.13.15.24.15.1,0,.26-.04.46-.12h.02Z"/>
    <path class="cls-6" d="M219.32,73.27c.15.15.37.32.66.48.28.16.49.29.63.38.14.09.26.22.37.39.11.17.17.37.17.6,0,.25-.06.48-.19.7-.13.22-.32.4-.57.53-.25.14-.55.2-.9.2-.41,0-.79-.1-1.16-.3-.04-.04-.07-.09-.07-.13l-.02-1.09s.02-.04.06-.04c.04,0,.06,0,.07.02.12.37.32.68.59.94s.55.38.84.38c.16,0,.28-.05.37-.14.09-.1.14-.24.14-.42,0-.27-.08-.49-.23-.64-.16-.16-.39-.32-.69-.49-.26-.14-.46-.25-.59-.34s-.25-.21-.36-.38c-.1-.16-.16-.36-.16-.59,0-.43.16-.75.47-.95.31-.2.69-.3,1.15-.3.17,0,.33.01.46.03.14.02.29.07.46.13.07.02.1.06.1.12,0,.18,0,.33-.01.43v.55s-.03.03-.08.03-.07-.01-.07-.03c0-.14-.06-.29-.18-.46-.12-.17-.27-.31-.46-.42-.19-.12-.38-.18-.58-.18-.3,0-.46.14-.46.43,0,.21.08.4.23.55Z"/>
    <path class="cls-6" d="M225.7,75.67s.05.02.07.04.02.05,0,.07c-.28.27-.54.47-.8.6-.26.13-.53.19-.82.19-.33,0-.6-.08-.83-.23-.23-.15-.35-.41-.35-.78v-2.45c0-.23-.04-.39-.12-.47s-.23-.13-.45-.13c0,0-.02-.01-.03-.03-.01-.02-.02-.04-.02-.07,0-.03,0-.05.01-.07,0-.02.02-.03.03-.03.38-.01.68-.09.92-.24.23-.15.41-.37.54-.67.01-.03.05-.04.09-.04s.07.01.07.04v.88c.43,0,.91-.04,1.45-.1.01,0,.03.03.05.08.02.05.03.12.03.18,0,.07-.01.14-.04.21-.03.07-.05.1-.08.09-.48-.1-.95-.16-1.4-.17v2.61c0,.28.07.48.22.62.15.13.34.2.57.2.3,0,.59-.11.87-.33h.02Z"/>
    <path class="cls-6" d="M230.71,75.71s.03.01.05.04.02.05,0,.07c-.27.26-.55.46-.83.57s-.59.18-.92.18c-.47,0-.87-.1-1.21-.29-.34-.19-.6-.46-.78-.78-.18-.33-.27-.68-.27-1.06,0-.43.11-.82.32-1.18.21-.36.51-.64.9-.85.38-.21.81-.31,1.3-.31s.82.1,1.07.31c.25.21.38.52.38.96,0,.23-.04.34-.12.34h-2.71c0,.06-.01.15-.01.26,0,.65.15,1.15.45,1.52s.73.55,1.3.55c.2,0,.37-.02.51-.07.14-.04.33-.12.56-.24h.02ZM228.23,72.62c-.16.21-.27.5-.32.86l1.62-.02c0-.38-.06-.66-.17-.86-.1-.2-.28-.3-.51-.3s-.45.11-.61.31Z"/>
    <path class="cls-6" d="M237.31,76.37s-.01.07-.03.07c-.19,0-.34,0-.46-.01h-.67s-.65,0-.65,0c-.12,0-.27.01-.47.01-.02,0-.03-.02-.03-.07s.01-.07.03-.07c.23,0,.39-.05.47-.16s.12-.31.12-.6v-1.59c0-.4-.07-.69-.22-.88-.14-.19-.37-.29-.68-.29-.18,0-.36.04-.55.11-.19.07-.35.17-.5.3v2.35c0,.29.04.49.13.6.08.11.24.16.47.16.02,0,.03.02.03.07s-.01.07-.03.07c-.19,0-.34,0-.46-.01h-.67s-.66,0-.66,0c-.11,0-.26.01-.46.01-.02,0-.03-.02-.03-.07s.01-.07.03-.07c.23,0,.39-.05.47-.16.08-.11.12-.31.12-.6v-2.07c0-.23-.03-.39-.08-.5s-.14-.16-.26-.16c-.13,0-.3.05-.54.15h-.02s-.04-.02-.05-.05c-.01-.04,0-.06,0-.07l1.55-.75s.07-.02.08-.02c.08,0,.16.08.23.24.07.16.12.37.13.64.51-.6,1.08-.9,1.69-.9.4,0,.72.13.95.38.23.25.35.59.35,1v2.11c0,.29.04.49.13.6.08.11.24.16.47.16.02,0,.03.02.03.07Z"/>
    <path class="cls-6" d="M241.63,75.67s.05.02.07.04c.02.03.02.05,0,.07-.28.27-.54.47-.8.6-.26.13-.54.19-.82.19-.33,0-.61-.08-.84-.23-.23-.15-.34-.41-.34-.78v-2.45c0-.23-.04-.39-.12-.47s-.23-.13-.45-.13c0,0-.02-.01-.03-.03-.01-.02-.02-.04-.02-.07,0-.03,0-.05.01-.07,0-.02.02-.03.03-.03.38-.01.68-.09.92-.24.23-.15.41-.37.54-.67.01-.03.05-.04.09-.04s.07.01.07.04v.88c.43,0,.91-.04,1.45-.1.01,0,.03.03.05.08.02.05.03.12.03.18,0,.07-.01.14-.04.21-.03.07-.05.1-.08.09-.48-.1-.95-.16-1.4-.17v2.61c0,.28.07.48.22.62.14.13.34.2.57.2.3,0,.59-.11.87-.33h.02Z"/>
    <path class="cls-6" d="M246.99,75.84s.05.02.06.05c.01.03,0,.06-.03.07l-1.15.54s-.07.02-.11.02c-.12,0-.23-.06-.34-.19-.11-.12-.18-.29-.23-.51l-.48.33c-.17.12-.33.21-.48.27-.15.06-.32.08-.5.08-.32,0-.56-.07-.72-.21-.16-.14-.25-.33-.25-.58,0-.2.05-.36.14-.48.1-.12.22-.22.36-.29.14-.07.35-.15.61-.24l.28-.1,1-.36v-.63c0-.47-.04-.81-.12-1.02-.08-.21-.21-.32-.4-.32-.39,0-.62.3-.67.9-.02.22-.09.38-.19.47s-.26.14-.45.14-.32-.04-.41-.12c-.09-.08-.13-.18-.13-.3,0-.22.13-.43.39-.63.26-.2.57-.37.94-.49.37-.12.69-.19.97-.19.33,0,.59.1.8.3s.31.51.31.92v1.95c0,.21.04.38.12.5.08.12.19.18.33.18.1,0,.21-.03.32-.08h.01ZM245.17,75.64s-.01-.08-.01-.14v-1.06l-.48.22s-.1.04-.22.08c-.13.05-.24.13-.33.24s-.14.24-.14.39c0,.18.06.31.17.41.11.1.25.15.4.15.12,0,.24-.04.37-.12l.25-.17ZM244.63,71.24s-.04,0-.06-.02c-.02-.01-.02-.02-.02-.03l.37-2.64s.14-.06.37-.1c.23-.04.42-.06.58-.06.1,0,.15.02.15.04l-1.34,2.79s-.01.02-.04.02Z"/>
    <path class="cls-6" d="M252.64,72.25s0,.07-.02.07c-.22,0-.41.08-.57.24s-.33.41-.47.75l-1.37,3.13s-.05.05-.12.05c-.06,0-.1-.02-.12-.05l-1.7-3.34c-.16-.32-.29-.53-.41-.63-.12-.1-.26-.15-.43-.15-.02,0-.03-.02-.03-.07s.01-.07.03-.07c.13,0,.25,0,.33.01h.75s.86,0,.86,0c.13,0,.3-.01.52-.01.02,0,.03.02.03.07s-.01.07-.03.07c-.43,0-.65.08-.65.25,0,.04.02.1.06.18l1.25,2.31.74-1.76c.06-.15.09-.29.09-.4,0-.18-.06-.33-.19-.43-.13-.1-.3-.15-.52-.15-.01,0-.02-.02-.02-.07s0-.07.02-.07c.2,0,.35,0,.46.01h.67s.45,0,.45,0c.09,0,.23-.01.41-.01.01,0,.02.02.02.07Z"/>
    <path class="cls-6" d="M257.34,75.71s.03.01.05.04.02.05,0,.07c-.27.26-.55.46-.83.57s-.59.18-.92.18c-.47,0-.87-.1-1.21-.29-.34-.19-.6-.46-.78-.78-.18-.33-.27-.68-.27-1.06,0-.43.11-.82.32-1.18.21-.36.51-.64.9-.85.38-.21.81-.31,1.3-.31s.82.1,1.07.31c.25.21.38.52.38.96,0,.23-.04.34-.12.34h-2.71c0,.06-.01.15-.01.26,0,.65.15,1.15.45,1.52s.73.55,1.3.55c.2,0,.37-.02.51-.07.14-.04.33-.12.56-.24h.02ZM254.86,72.62c-.16.21-.27.5-.32.86l1.62-.02c0-.38-.06-.66-.17-.86-.1-.2-.28-.3-.51-.3s-.45.11-.61.31Z"/>
    <path class="cls-6" d="M258.6,76.37s0-.07.02-.07c.23,0,.39-.05.47-.16.08-.11.13-.31.13-.6v-5.59c.01-.26-.01-.44-.06-.55-.05-.11-.13-.17-.25-.17-.1,0-.24.04-.42.12h-.01s-.04-.02-.06-.06c-.02-.04-.02-.06,0-.07l1.64-.76h.04s.08,0,.12.04c.04.03.07.06.07.09v6.95c0,.29.04.49.12.6s.24.16.47.16c.03,0,.04.02.04.07s-.02.07-.04.07c-.19,0-.33,0-.45-.01h-.68s-.67,0-.67,0c-.11,0-.26.01-.46.01-.01,0-.02-.02-.02-.07Z"/>
    <path class="cls-6" d="M185.3,88.31s.04.02.06.05c.02.04.02.06,0,.07l-1.54.74h-.06c-.07.01-.13-.06-.18-.2-.06-.14-.09-.33-.11-.57-.55.51-1.11.77-1.68.77-.33,0-.62-.08-.88-.25-.26-.17-.47-.42-.63-.74-.16-.33-.23-.71-.23-1.15,0-.56.13-1.01.4-1.37.26-.36.59-.62.98-.78.39-.16.78-.24,1.18-.24.27,0,.56.04.87.13v-2.22c0-.26-.02-.44-.07-.55s-.13-.17-.25-.17c-.1,0-.23.04-.41.12h-.01s-.05-.02-.07-.06c-.02-.04-.02-.06,0-.07l1.64-.76h.04s.08,0,.12.04.07.06.07.09v6.56c0,.25.02.43.07.53.05.1.13.15.24.15.1,0,.25-.04.46-.12h.01ZM183.48,88.18v-2.73c-.13-.18-.28-.32-.45-.4-.17-.08-.36-.13-.58-.13-.4,0-.71.14-.92.41-.21.28-.32.72-.32,1.34s.11,1.1.33,1.45c.22.35.52.52.88.52s.72-.15,1.06-.46Z"/>
    <path class="cls-6" d="M190.26,88.3s.03.01.05.04.02.05,0,.07c-.27.26-.55.46-.83.57s-.59.18-.92.18c-.47,0-.87-.1-1.21-.29-.34-.19-.6-.46-.78-.78-.18-.33-.27-.68-.27-1.06,0-.43.11-.82.32-1.18.22-.36.51-.64.9-.85.38-.21.81-.31,1.3-.31s.82.1,1.07.31c.25.21.38.52.38.96,0,.23-.04.34-.12.34h-2.71c0,.06-.01.15-.01.26,0,.65.15,1.15.45,1.52s.73.55,1.3.55c.2,0,.37-.02.51-.07.14-.04.33-.12.56-.24h.02ZM187.78,85.21c-.16.21-.27.5-.32.86l1.62-.02c0-.38-.06-.66-.17-.86-.1-.2-.28-.3-.51-.3s-.45.11-.61.31Z"/>
    <path class="cls-6" d="M199.63,83.7s-.02.03-.06.03c-.04,0-.06,0-.07-.02-.12-.43-.32-.74-.6-.95-.28-.21-.65-.31-1.11-.31h-.33c-.22,0-.39.05-.49.14-.1.1-.16.24-.16.44v2.38h.8c.43,0,.76-.08.99-.23s.34-.36.34-.62c0-.01.02-.02.07-.02s.07,0,.07.02v1c-.01.23,0,.41,0,.53v.58s-.01.03-.06.03-.07-.01-.07-.03c0-.29-.12-.53-.35-.7-.23-.17-.57-.26-1-.26h-.79v2.36c0,.23.03.4.09.51s.17.19.33.23c.16.04.42.07.77.07.01,0,.02.02.02.07s0,.07-.02.07c-.3,0-.54,0-.71-.01h-1.14s-.83,0-.83,0c-.15,0-.35.01-.61.01-.02,0-.03-.02-.03-.07s.01-.07.03-.07c.26,0,.45-.02.57-.06.12-.04.2-.11.24-.21.04-.11.06-.27.06-.49v-5.1c0-.22-.02-.38-.06-.48s-.11-.17-.22-.21c-.11-.04-.28-.06-.51-.06-.02,0-.03-.02-.03-.07s.01-.07.03-.07h4.72c.07,0,.11.03.11.1l.02,1.46Z"/>
    <path class="cls-6" d="M204.51,84.85c.16.12.24.27.24.43,0,.15-.05.28-.14.38-.1.1-.22.15-.38.15-.11,0-.2-.02-.27-.07s-.14-.11-.22-.2c-.07-.07-.12-.13-.17-.16-.05-.03-.11-.05-.17-.05-.07,0-.15.03-.24.08-.08.06-.22.17-.4.35v2.37c0,.29.07.49.21.6.14.11.4.16.78.16.03,0,.04.02.04.07s-.01.07-.04.07c-.26,0-.46,0-.61-.01h-.9s-.66,0-.66,0c-.11,0-.26.01-.46.01-.02,0-.03-.02-.03-.07s.01-.07.03-.07c.23,0,.39-.05.47-.16.08-.11.12-.31.12-.6v-2.07c0-.23-.03-.39-.08-.5-.06-.11-.14-.16-.26-.16-.13,0-.3.05-.53.15h-.02s-.04-.02-.05-.05c-.01-.04,0-.06,0-.07l1.55-.75s.07-.02.08-.02c.08,0,.16.08.23.23.07.15.11.35.13.61.3-.31.55-.53.75-.65.2-.12.37-.19.52-.19.17,0,.34.06.5.18Z"/>
    <path class="cls-6" d="M211.02,88.31s.04.02.06.05c.02.04.02.06,0,.07l-1.54.74s-.03.01-.06.01c-.07,0-.14-.08-.2-.24-.06-.16-.09-.37-.09-.64-.49.57-1.02.86-1.59.86-.41,0-.73-.13-.96-.38-.23-.25-.35-.58-.35-1v-1.62c0-.48-.12-.72-.34-.72-.08,0-.17.03-.28.08h-.01s-.05-.02-.07-.06c-.02-.04-.01-.06.01-.07l1.49-.71h.06s.08,0,.12.04c.04.03.06.06.06.09v2.43c0,.79.31,1.19.92,1.19.16,0,.33-.03.5-.1.17-.07.32-.17.45-.29v-1.88c0-.48-.12-.72-.34-.72-.08,0-.18.03-.29.08h-.01s-.04-.02-.06-.06c-.02-.04-.01-.06.01-.07l1.49-.71s.03-.01.06-.01c.04,0,.08.02.12.05.04.03.06.06.06.09v2.93c0,.25.02.43.07.53.05.1.13.15.24.15.1,0,.26-.04.46-.12h.02Z"/>
    <path class="cls-6" d="M215.25,88.25s.05.02.07.04.02.05,0,.07c-.27.27-.54.47-.8.6-.26.13-.54.19-.82.19-.33,0-.61-.08-.84-.23-.23-.15-.34-.41-.34-.78v-2.45c0-.23-.04-.39-.12-.47-.08-.09-.23-.13-.45-.13,0,0-.02-.01-.03-.03-.01-.02-.02-.04-.02-.07,0-.03,0-.05.01-.07,0-.02.02-.03.03-.03.38-.01.69-.09.92-.24.23-.15.41-.37.54-.67.01-.03.05-.04.09-.04s.07.01.07.04v.88c.43,0,.91-.04,1.45-.1.01,0,.03.03.05.08.02.05.03.12.03.18,0,.07-.01.14-.04.21-.03.07-.05.1-.08.09-.48-.1-.95-.16-1.4-.17v2.61c0,.28.07.48.22.62s.34.2.57.2c.3,0,.59-.11.87-.33h.02Z"/>
    <path class="cls-6" d="M220.61,88.43s.05.02.06.05c.01.03,0,.06-.03.07l-1.15.54s-.07.02-.11.02c-.12,0-.23-.06-.34-.19-.11-.12-.18-.29-.23-.51l-.48.33c-.17.12-.33.21-.48.27-.15.06-.32.08-.5.08-.32,0-.56-.07-.72-.21-.16-.14-.25-.33-.25-.58,0-.2.05-.36.14-.48s.22-.22.36-.29c.14-.07.35-.15.61-.24l.28-.1,1-.36v-.63c0-.47-.04-.81-.12-1.02-.08-.21-.21-.32-.39-.32-.39,0-.62.3-.67.9-.02.22-.09.38-.19.47-.11.1-.26.14-.45.14s-.32-.04-.41-.12c-.08-.08-.13-.18-.13-.3,0-.22.13-.43.39-.63.26-.2.57-.37.94-.49.37-.12.69-.19.97-.19.33,0,.59.1.8.3.2.2.31.51.31.92v1.95c0,.21.04.38.12.5.08.12.19.18.33.18.1,0,.21-.03.32-.08h.01ZM218.79,88.23s-.01-.08-.01-.14v-1.06l-.48.22s-.1.04-.22.08c-.13.05-.24.13-.33.24s-.14.24-.14.39c0,.18.06.31.17.41.12.1.25.15.4.15.12,0,.24-.04.37-.12l.25-.17Z"/>
    <path class="cls-6" d="M221.56,88.96s0-.07.02-.07c.23,0,.39-.05.47-.16.08-.11.13-.31.13-.6v-5.59c.01-.26-.01-.44-.06-.55s-.13-.17-.25-.17c-.1,0-.24.04-.42.12h-.01s-.04-.02-.06-.06c-.02-.04-.02-.06,0-.07l1.64-.76h.04s.08,0,.12.04.07.06.07.09v6.95c0,.29.04.49.12.6.08.11.24.16.47.16.03,0,.04.02.04.07s-.01.07-.04.07c-.19,0-.33,0-.45-.01h-.68s-.67,0-.67,0c-.11,0-.26.01-.46.01-.01,0-.02-.02-.02-.07Z"/>
  </g>
  <g>
    <path class="cls-3" d="M142.84,23.77c1.32.17,2.37.4,3.16.68.24.07.4.16.47.26.07.1.12.28.14.54l.53,4.84c0,.07-.07.12-.2.14-.14.02-.23-.01-.29-.1-.76-1.9-1.85-3.36-3.26-4.37-1.41-1.01-3.11-1.52-5.1-1.52-1.85,0-3.5.42-4.96,1.27-1.46.85-2.6,2.06-3.43,3.64-.83,1.58-1.24,3.43-1.24,5.54s.43,4.01,1.29,5.63c.86,1.61,2.04,2.86,3.55,3.73,1.51.87,3.24,1.31,5.2,1.31s3.45-.44,4.73-1.31c1.28-.87,2.49-2.3,3.63-4.3.03-.07.11-.09.25-.07.14.02.2.07.2.14l-.61,4.32c-.05.28-.11.46-.16.54-.05.08-.2.17-.45.26-2.5.77-5.03,1.15-7.59,1.15-2.91,0-5.51-.47-7.81-1.41-2.3-.94-4.1-2.26-5.41-3.95-1.31-1.69-1.96-3.62-1.96-5.78s.67-4.17,2.02-5.9c1.35-1.73,3.2-3.08,5.55-4.06,2.35-.98,4.97-1.46,7.85-1.46,1.28,0,2.58.09,3.9.26Z"/>
    <path class="cls-3" d="M158.51,44.57c-1.97-1.01-3.5-2.38-4.57-4.11-1.07-1.73-1.61-3.62-1.61-5.66,0-2.39.71-4.44,2.12-6.15,1.41-1.71,3.23-2.99,5.45-3.85,2.22-.86,4.48-1.29,6.79-1.29,2.58,0,4.85.52,6.81,1.55,1.96,1.03,3.46,2.4,4.51,4.09,1.05,1.7,1.57,3.5,1.57,5.4,0,2.11-.65,4.05-1.96,5.82s-3.05,3.16-5.24,4.18c-2.19,1.02-4.56,1.53-7.12,1.53s-4.78-.5-6.75-1.52ZM170.7,44.08c1.21-.75,2.16-1.86,2.83-3.31.68-1.45,1.02-3.19,1.02-5.21,0-2.14-.38-4.05-1.14-5.73-.76-1.68-1.86-3-3.3-3.95-1.44-.95-3.13-1.43-5.06-1.43-2.48,0-4.38.8-5.71,2.39-1.33,1.59-2,3.81-2,6.67,0,2.25.4,4.27,1.2,6.04.8,1.78,1.9,3.16,3.3,4.16,1.4,1,2.98,1.5,4.75,1.5,1.52,0,2.89-.38,4.1-1.13Z"/>
    <path class="cls-3" d="M192.8,45.7c-.43-.02-.97-.05-1.61-.07-.64-.02-1.35-.04-2.14-.04l-3.02.04c-.54.02-1.28.03-2.2.03-.06,0-.08-.07-.08-.21s.03-.21.08-.21c.87,0,1.51-.06,1.92-.17.41-.12.69-.34.84-.68.15-.34.22-.85.22-1.55v-16.13c0-.7-.08-1.21-.22-1.53-.15-.32-.42-.55-.82-.68-.39-.13-1.01-.19-1.86-.19-.08,0-.12-.07-.12-.21s.04-.21.12-.21l2.16.03c1.25.05,2.24.07,2.98.07,1.12,0,2.26-.04,3.43-.1,1.41-.05,2.37-.07,2.86-.07,2.75,0,5.19.46,7.32,1.39,2.13.93,3.79,2.19,4.96,3.8,1.17,1.6,1.75,3.4,1.75,5.4,0,2.25-.61,4.24-1.82,5.97-1.21,1.73-2.84,3.07-4.9,4.01-2.05.94-4.3,1.41-6.75,1.41-.87,0-1.9-.03-3.1-.1ZM200.1,43.87c1.33-.75,2.37-1.88,3.12-3.36.75-1.49,1.12-3.26,1.12-5.33s-.35-3.77-1.06-5.38c-.71-1.61-1.71-2.89-3.02-3.81-1.31-.93-2.82-1.39-4.53-1.39s-2.84.14-3.47.42c-.63.28-.94.87-.94,1.78v15.67c0,.93.29,1.58.86,1.97.57.38,1.67.57,3.3.57,1.74,0,3.28-.38,4.61-1.13Z"/>
    <path class="cls-3" d="M232.78,40.06c.08,0,.16.02.22.05.07.03.1.06.1.09-.27,1.81-.41,3.46-.41,4.95,0,.19-.04.32-.12.4-.08.08-.24.12-.49.12h-18.03c-.08,0-.12-.07-.12-.21s.04-.21.12-.21c.87,0,1.5-.06,1.9-.17.39-.12.66-.34.8-.68.14-.34.2-.85.2-1.55v-16.13c0-.7-.07-1.21-.2-1.53-.14-.32-.41-.55-.82-.68-.41-.13-1.03-.19-1.88-.19-.08,0-.12-.07-.12-.21s.04-.21.12-.21h17.3c.27,0,.41.1.41.31l.08,4.63s-.08.08-.22.1c-.15.02-.24,0-.27-.07-.44-1.35-1.17-2.35-2.2-3-1.03-.65-2.39-.98-4.08-.98h-1.22c-.82,0-1.41.15-1.79.45-.38.3-.57.77-.57,1.39v7.11h3.39c1.58,0,2.79-.23,3.63-.7.84-.46,1.26-1.11,1.26-1.95,0-.07.07-.1.22-.1s.22.03.22.1l-.04,3.13.04,1.67c.05.79.08,1.42.08,1.88,0,.05-.08.07-.25.07s-.24-.02-.24-.07c0-.95-.43-1.7-1.29-2.25-.86-.55-2.09-.82-3.69-.82h-3.35v7.87c0,.67.15,1.17.45,1.5.3.33.77.49,1.43.49h1.35c2.12,0,3.82-.37,5.1-1.11,1.28-.74,2.22-1.89,2.81-3.45,0-.05.05-.07.16-.07Z"/>
    <path class="cls-3" d="M243.77,29.64c.5.65,1.12,1.22,1.86,1.71s1.73,1.08,2.98,1.78c1.36.74,2.45,1.39,3.26,1.95.82.56,1.51,1.24,2.08,2.04.57.8.86,1.72.86,2.77,0,1.21-.38,2.28-1.14,3.22-.76.94-1.82,1.67-3.16,2.19-1.35.52-2.85.78-4.51.78-1.22,0-2.5-.15-3.83-.44-1.33-.29-2.23-.61-2.69-.96-.14-.09-.24-.18-.31-.26-.07-.08-.1-.21-.1-.4l-.12-5.54v-.03c0-.09.07-.14.2-.16.14-.01.22.03.25.12.82,1.42,1.53,2.57,2.14,3.45.61.88,1.39,1.66,2.33,2.33.94.67,2,1.01,3.2,1.01,1.09,0,1.99-.25,2.69-.75.71-.5,1.06-1.35,1.06-2.56,0-1.02-.27-1.92-.8-2.68-.53-.77-1.18-1.42-1.94-1.95s-1.81-1.17-3.14-1.92c-1.31-.72-2.32-1.33-3.04-1.85-.72-.51-1.34-1.13-1.86-1.85-.52-.72-.77-1.57-.77-2.54,0-1.23.41-2.27,1.24-3.12.83-.85,1.9-1.47,3.2-1.88,1.31-.41,2.68-.61,4.12-.61.95,0,1.92.08,2.9.23.98.15,1.77.33,2.37.54.25.09.41.19.49.3.08.1.12.24.12.4v5.12c0,.07-.07.12-.2.16-.14.03-.22.02-.25-.05l-.33-.66c-.68-1.46-1.48-2.71-2.39-3.73-.91-1.02-2.18-1.53-3.81-1.53-1.09,0-1.98.27-2.67.8-.69.53-1.04,1.31-1.04,2.33,0,.84.25,1.58.75,2.23Z"/>
    <path class="cls-3" d="M277.41,28.84s-.08.08-.22.1c-.15.02-.24,0-.27-.07-.44-1.35-1.17-2.35-2.2-3-1.03-.65-2.39-.98-4.08-.98h-1.22c-.82,0-1.41.15-1.79.45-.38.3-.57.77-.57,1.39v7.52h2.94c1.58,0,2.78-.24,3.61-.71.83-.48,1.25-1.13,1.25-1.97,0-.05.08-.07.24-.07s.25.02.25.07l-.04,3.17c0,.74.01,1.3.04,1.67l.04,1.85c0,.07-.08.1-.25.1s-.25-.03-.25-.1c0-.93-.43-1.67-1.29-2.21-.86-.54-2.07-.82-3.65-.82h-2.9v7.45c0,.72.11,1.25.33,1.6.22.35.63.59,1.22.73.6.14,1.54.21,2.81.21.05,0,.08.07.08.21s-.03.21-.08.21c-1.12,0-1.99-.01-2.61-.03l-4.16-.04-3.06.04c-.54.02-1.29.03-2.24.03-.08,0-.12-.07-.12-.21s.04-.21.12-.21c.95,0,1.65-.06,2.08-.17.43-.12.73-.34.88-.68.15-.34.22-.85.22-1.55v-16.13c0-.7-.07-1.21-.2-1.53-.14-.32-.41-.55-.82-.68-.41-.13-1.03-.19-1.88-.19-.08,0-.12-.07-.12-.21s.04-.21.12-.21h17.3c.27,0,.41.1.41.31l.08,4.63Z"/>
  </g>
</svg>